<svg xmlns="http://www.w3.org/2000/svg" width="83" height="16" viewBox="0 0 83 16">
  <defs>
    <style>
      .cls-1 {
        fill: #c00;
        fill-rule: evenodd;
      }
    </style>
  </defs>
  <path id="Polygon_1_copy_4" data-name="Polygon 1 copy 4" class="cls-1" d="M2097.5,362l2,6.126,6.5-.013-5.27,3.774,2.02,6.118-5.25-3.794-5.25,3.794,2.02-6.118-5.27-3.774,6.5,0.013Zm17,0,2,6.126,6.5-.013-5.27,3.774,2.02,6.118-5.25-3.794-5.25,3.794,2.02-6.118-5.27-3.774,6.5,0.013Zm17,0,2,6.126,6.5-.013-5.27,3.774,2.02,6.118-5.25-3.794-5.25,3.794,2.02-6.118-5.27-3.774,6.5,0.013Zm16,0,2,6.126,6.5-.013-5.27,3.774,2.02,6.118-5.25-3.794-5.25,3.794,2.02-6.118-5.27-3.774,6.5,0.013Zm16,0,2,6.126,6.5-.013-5.27,3.774,2.02,6.118-5.25-3.794-5.25,3.794,2.02-6.118-5.27-3.774,6.5,0.013Z" transform="translate(-2089 -362)"/>
</svg>
